<svg width="14" height="13" viewBox="0 0 14 13" fill="none" xmlns="http://www.w3.org/2000/svg">
<path d="M5.98035 1.08203L6.58191 0.480469C6.85535 0.234375 7.2655 0.234375 7.5116 0.480469L12.8436 5.78516C13.0897 6.05859 13.0897 6.46875 12.8436 6.71484L7.5116 12.0469C7.2655 12.293 6.85535 12.293 6.58191 12.0469L5.98035 11.4453C5.73425 11.1719 5.73425 10.7617 5.98035 10.4883L9.28894 7.34375H1.44128C1.05847 7.34375 0.785034 7.07031 0.785034 6.6875V5.8125C0.785034 5.45703 1.05847 5.15625 1.44128 5.15625H9.28894L5.98035 2.03906C5.73425 1.76562 5.70691 1.35547 5.98035 1.08203Z" fill="white"/>
<a href="https://htmlbeans.com/html/botanical/shop.html">
<rect fill="black" fill-opacity="0" x="0.375" y="-1.05" width="12.25" height="16.1"/>
</a>
</svg>

