<svg width="70" height="70" viewBox="0 0 70 70" fill="none" xmlns="http://www.w3.org/2000/svg">
<path d="M58.1055 35.5469H11.9629C11.5527 35.5469 11.2109 35.6836 10.9375 35.957C10.6641 36.2305 10.5273 36.5723 10.5273 36.9824V44.502C10.5273 44.9121 10.6641 45.2539 10.9375 45.5273C11.2109 45.8008 11.5527 45.9375 11.9629 45.9375H58.1055C58.5156 45.9375 58.8574 45.8008 59.1309 45.5273C59.4043 45.2539 59.541 44.9121 59.541 44.502V36.9824C59.541 36.5723 59.4043 36.2305 59.1309 35.957C58.8574 35.6836 58.5156 35.5469 58.1055 35.5469ZM56.7383 43.2031H13.3301V38.3496H56.8066L56.7383 43.2031ZM14.7656 43.2031L15.3809 45.9375L20.5078 68.2227C20.6445 68.724 20.918 69.1455 21.3281 69.4873C21.7383 69.8291 22.2168 70 22.7637 70H49.3555C49.9023 70 50.3923 69.8291 50.8252 69.4873C51.2581 69.1455 51.5202 68.7012 51.6113 68.1543L56.4648 43.2031H14.7656ZM48.9453 67.1973H23.1738L18.252 45.9375L18.1836 45.6641H53.0469L52.9785 45.9375L48.9453 67.1973ZM34.7949 0C34.7949 0 34.0544 0.968422 32.5732 2.90527C31.0921 4.84212 30.3516 7.17773 30.3516 9.91211C30.3516 11.9629 30.8187 13.8086 31.7529 15.4492C32.6872 17.0898 33.4733 18.2975 34.1113 19.0723C34.2936 19.3001 34.4531 19.4824 34.5898 19.6191C34.7266 19.7559 34.7949 19.8242 34.7949 19.8242C34.7949 19.8242 34.8633 19.7559 35 19.6191C35.1367 19.4824 35.2962 19.3001 35.4785 19.0723C36.1165 18.2975 36.8913 17.0898 37.8027 15.4492C38.7142 13.8086 39.1699 11.9629 39.1699 9.91211C39.1699 7.17773 38.4408 4.84212 36.9824 2.90527C35.5241 0.968422 34.7949 0 34.7949 0ZM32.4707 9.91211C32.4707 8.63607 32.7214 7.41699 33.2227 6.25488C33.724 5.09277 34.248 4.12435 34.7949 3.34961C35.3418 4.12435 35.8659 5.09277 36.3672 6.25488C36.8685 7.41699 37.1191 8.63607 37.1191 9.91211C37.028 11.1426 36.7773 12.3161 36.3672 13.4326C35.957 14.5492 35.4102 15.5859 34.7266 16.543L34.7949 16.4746C34.248 15.6999 33.724 14.7428 33.2227 13.6035C32.7214 12.4642 32.4707 11.2337 32.4707 9.91211ZM38.9648 20.3711C38.099 21.2826 37.3698 22.3193 36.7773 23.4814C36.1849 24.6436 35.752 25.8626 35.4785 27.1387V27.2754C35.3418 27.7311 35.2393 28.2438 35.1709 28.8135C35.1025 29.3831 35.0684 29.9414 35.0684 30.4883V30.5566H35.4785C36.2077 30.5111 37.5977 30.2604 39.6484 29.8047C41.6992 29.349 43.5449 28.3008 45.1855 26.6602C47.1452 24.7005 48.2845 22.513 48.6035 20.0977C48.9225 17.6823 49.082 16.4746 49.082 16.4746C49.082 16.4746 47.8857 16.6341 45.4932 16.9531C43.1006 17.2721 40.9245 18.4115 38.9648 20.3711ZM43.75 25.2246C42.8841 25.9993 41.9271 26.6374 40.8789 27.1387C39.8307 27.64 38.7142 27.9818 37.5293 28.1641H37.4609C37.6432 27.2526 37.9622 26.2044 38.418 25.0195C38.8737 23.8346 39.5573 22.7865 40.4688 21.875C41.2891 21.1003 42.2347 20.4622 43.3057 19.9609C44.3766 19.4596 45.5046 19.1178 46.6895 18.9355L46.7578 18.8672C46.5755 20.0977 46.2223 21.2484 45.6982 22.3193C45.1742 23.3903 44.5247 24.3587 43.75 25.2246ZM35.4785 35.8887C35.4785 35.8431 35.4785 35.7861 35.4785 35.7178C35.4785 35.6494 35.4785 35.5924 35.4785 35.5469C35.3418 34.5443 35.1595 33.5986 34.9316 32.71C34.7038 31.8213 34.4076 30.9668 34.043 30.1465L34.1113 30.2832C33.7923 29.554 33.4277 28.8932 33.0176 28.3008C32.6074 27.7083 32.1517 27.1615 31.6504 26.6602C29.7363 24.7005 27.5716 23.5612 25.1562 23.2422C22.7409 22.9232 21.5332 22.7637 21.5332 22.7637C21.5332 22.7637 21.6927 23.9714 22.0117 26.3867C22.3307 28.8021 23.4473 30.9668 25.3613 32.8809C25.9538 33.4733 26.5804 33.986 27.2412 34.4189C27.902 34.8519 28.6198 35.2051 29.3945 35.4785L29.4629 35.5469C30.1465 35.8203 30.8643 36.0596 31.6162 36.2646C32.3682 36.4697 33.1543 36.6178 33.9746 36.709H34.1113C34.4303 36.7546 34.7152 36.7773 34.9658 36.7773C35.2165 36.7773 35.3874 36.7773 35.4785 36.7773H35.5469C35.5469 36.7773 35.5469 36.6976 35.5469 36.5381C35.5469 36.3786 35.5241 36.1621 35.4785 35.8887ZM26.8652 31.4453C25.9538 30.5339 25.2702 29.4857 24.8145 28.3008C24.3587 27.1159 24.0397 26.0677 23.8574 25.1562C25.0879 25.3385 26.2386 25.6917 27.3096 26.2158C28.3805 26.7399 29.3262 27.3665 30.1465 28.0957C30.9212 28.9616 31.5706 29.9186 32.0947 30.9668C32.6188 32.015 32.972 33.1543 33.1543 34.3848V34.4531C32.2428 34.2708 31.1947 33.9518 30.0098 33.4961C28.8249 33.0404 27.7767 32.3568 26.8652 31.4453ZM34.1113 17.7734H35.4785V38.3496H34.1113V17.7734Z" fill="#5BA515"/>
</svg>
